<svg width="273" height="122" viewBox="0 0 273 122" fill="none"
  xmlns="http://www.w3.org/2000/svg">
  <path
    d="M18.5647 66.7146H0V64.9465C5.24346 64.9465 6.73147 63.1784 6.73147 59.7129V22.0879C6.73147 18.6931 5.24346 17.6323 0 17.6323V15.8642H26.359C34.2242 15.8642 40.7431 20.4612 40.7431 28.5945C40.7431 37.7886 34.2951 42.7392 25.7922 42.7392H11.1955V59.7129C11.1955 63.1784 12.7544 64.9465 18.5647 64.9465V66.7146ZM11.1955 22.0879V40.9711H24.5876C32.0985 40.9711 35.854 34.3231 35.854 28.5945C35.854 22.9366 32.0276 17.6323 24.6585 17.6323H16.2264C12.7544 17.6323 11.1955 18.6931 11.1955 22.0879Z"
    fill="url(#paint0_linear_6_87)" />
  <path
    d="M56.1912 66.7146H42.3031V64.9465C45.7751 64.9465 46.9797 63.6027 46.9797 60.6323V22.7951C46.9797 20.6734 45.9168 19.4711 42.3031 19.4711L42.0197 18.481L51.2312 15.2277V60.6323C51.2312 63.6027 52.6483 64.9465 56.1912 64.9465V66.7146Z"
    fill="url(#paint1_linear_6_87)" />
  <path
    d="M56.9717 36.1619L56.6883 35.0303L65.6164 32.4843V59.2179C65.6164 63.3906 67.317 64.9465 72.277 64.9465C77.4496 64.9465 80.709 62.6126 83.2599 60.4909V39.2738C83.2599 37.0813 82.3388 36.1619 78.7959 36.1619L78.5125 35.0303L87.5114 32.4843V60.3494C87.5114 63.3906 88.9285 64.8758 92.188 64.8758V66.361C88.4325 66.5731 86.8028 66.7146 83.2599 67.0682V62.3297C81.1342 64.31 76.3867 67.8462 70.789 67.8462C64.9787 67.8462 61.3649 64.7343 61.3649 59.2179V39.4859C61.3649 37.0813 60.3729 36.1619 56.9717 36.1619Z"
    fill="url(#paint2_linear_6_87)" />
  <path
    d="M97.2194 35.3132H91.8342V33.8987C96.7234 33.4744 99.6286 29.8675 99.9829 21.5928H101.471V33.2622H111.037V35.3132H101.471V60.8445C101.471 63.4613 103.171 64.805 106.077 64.805C108.273 64.805 110.612 63.2491 112.383 61.1274L113.233 61.7639C110.895 66.0781 107.919 67.8462 104.163 67.8462C100.125 67.8462 97.2194 65.3001 97.2194 59.8544V35.3132Z"
    fill="url(#paint3_linear_6_87)" />
  <path
    d="M130.735 32.4843C141.789 32.4843 146.891 41.1833 146.891 50.2359C146.891 59.3593 141.789 67.8462 130.735 67.8462C119.61 67.8462 114.58 59.3593 114.58 50.2359C114.58 41.1833 119.61 32.4843 130.735 32.4843ZM130.735 34.1816C122.728 34.1816 119.185 42.032 119.185 50.2359C119.185 58.4399 122.728 66.1488 130.735 66.1488C138.671 66.1488 142.214 58.4399 142.214 50.2359C142.214 42.032 138.671 34.1816 130.735 34.1816Z"
    fill="url(#paint4_linear_6_87)" />
  <path
    d="M164.889 66.7146H148.663V64.9465C153.693 64.9465 155.394 63.6027 155.394 60.0665V22.5122C155.394 18.976 153.693 17.6323 148.663 17.6323V15.8642H158.228L190.539 58.4399V21.5221C190.539 18.7639 188.697 17.6323 183.17 17.6323V15.8642H199.397V17.6323C194.72 17.6323 192.594 18.8346 192.594 21.5221V67.0682H191.461L157.52 21.9464V60.0665C157.52 63.6027 159.079 64.9465 164.889 64.9465V66.7146Z"
    fill="url(#paint5_linear_6_87)" />
  <path
    d="M127.979 77.3463C114.008 88.055 88.0573 109.793 93.2442 117.744C98.4312 125.694 139.865 110.733 159.934 102.259C180.002 93.784 201.914 82.8825 224.539 64.3543C245.123 47.4977 274.695 22.7058 270.62 14.2005C266.544 5.69513 232.49 17.7444 216.898 24.1388M128.21 75.4482C137.241 90.4712 155.951 109.192 183.553 103.645C211.155 98.0983 222.841 73.291 225.234 61.5808C226.932 45.3251 221.668 11.3345 187.027 3.56876C154.84 -3.64671 135.543 15.7413 130.757 26.9122"
    stroke="url(#paint6_linear_6_87)" stroke-width="3" />
  <defs>
    <linearGradient id="paint0_linear_6_87" x1="-2.62179" y1="39.9987"
      x2="202.541" y2="39.9987" gradientUnits="userSpaceOnUse">
      <stop stop-color="#E5C351" />
      <stop offset="0.25" stop-color="#EBE5C2" />
      <stop offset="0.5" stop-color="#BC9834" />
      <stop offset="0.75" stop-color="#EAE4C0" />
      <stop offset="1" stop-color="#DFBD49" />
    </linearGradient>
    <linearGradient id="paint1_linear_6_87" x1="-2.62179" y1="39.9987"
      x2="202.541" y2="39.9987" gradientUnits="userSpaceOnUse">
      <stop stop-color="#E5C351" />
      <stop offset="0.25" stop-color="#EBE5C2" />
      <stop offset="0.5" stop-color="#BC9834" />
      <stop offset="0.75" stop-color="#EAE4C0" />
      <stop offset="1" stop-color="#DFBD49" />
    </linearGradient>
    <linearGradient id="paint2_linear_6_87" x1="-2.62179" y1="39.9987"
      x2="202.541" y2="39.9987" gradientUnits="userSpaceOnUse">
      <stop stop-color="#E5C351" />
      <stop offset="0.25" stop-color="#EBE5C2" />
      <stop offset="0.5" stop-color="#BC9834" />
      <stop offset="0.75" stop-color="#EAE4C0" />
      <stop offset="1" stop-color="#DFBD49" />
    </linearGradient>
    <linearGradient id="paint3_linear_6_87" x1="-2.62179" y1="39.9987"
      x2="202.541" y2="39.9987" gradientUnits="userSpaceOnUse">
      <stop stop-color="#E5C351" />
      <stop offset="0.25" stop-color="#EBE5C2" />
      <stop offset="0.5" stop-color="#BC9834" />
      <stop offset="0.75" stop-color="#EAE4C0" />
      <stop offset="1" stop-color="#DFBD49" />
    </linearGradient>
    <linearGradient id="paint4_linear_6_87" x1="-2.62179" y1="39.9987"
      x2="202.541" y2="39.9987" gradientUnits="userSpaceOnUse">
      <stop stop-color="#E5C351" />
      <stop offset="0.25" stop-color="#EBE5C2" />
      <stop offset="0.5" stop-color="#BC9834" />
      <stop offset="0.75" stop-color="#EAE4C0" />
      <stop offset="1" stop-color="#DFBD49" />
    </linearGradient>
    <linearGradient id="paint5_linear_6_87" x1="-2.62179" y1="39.9987"
      x2="202.541" y2="39.9987" gradientUnits="userSpaceOnUse">
      <stop stop-color="#E5C351" />
      <stop offset="0.25" stop-color="#EBE5C2" />
      <stop offset="0.5" stop-color="#BC9834" />
      <stop offset="0.75" stop-color="#EAE4C0" />
      <stop offset="1" stop-color="#DFBD49" />
    </linearGradient>
    <linearGradient id="paint6_linear_6_87" x1="156.229" y1="2" x2="201.937"
      y2="98.2144" gradientUnits="userSpaceOnUse">
      <stop stop-color="#6A859C" />
      <stop offset="0.475" stop-color="#FDFDFE" />
      <stop offset="1" stop-color="#728EA5" />
    </linearGradient>
  </defs>
</svg>
  